<?xml version="1.0" standalone="no"?>
<!DOCTYPE svg PUBLIC "-//W3C//DTD SVG 20010904//EN"
 "http://www.w3.org/TR/2001/REC-SVG-20010904/DTD/svg10.dtd">
<svg version="1.0" xmlns="http://www.w3.org/2000/svg"
 width="2000.000000pt" height="454.000000pt" viewBox="0 0 2000.000000 454.000000"
 preserveAspectRatio="xMidYMid meet">

<g transform="translate(0.000000,454.000000) scale(0.100000,-0.100000)"
fill="#000000" stroke="none">
<path d="M5562 4517 c-55 -59 -52 89 -52 -2247 0 -1919 2 -2155 15 -2188 49
-116 144 -110 181 13 21 72 21 4278 0 4350 -28 90 -95 124 -144 72z"/>
<path d="M15180 2960 l0 -1210 240 0 240 0 2 479 3 479 151 -477 150 -476 257
-3 c141 -1 257 0 257 3 0 3 -86 259 -191 568 -105 309 -191 571 -191 582 0 11
68 216 151 455 83 239 151 436 151 438 0 1 -113 1 -252 0 l-251 -3 -118 -350
-117 -350 -1 538 -1 537 -240 0 -240 0 0 -1210z"/>
<path d="M19404 4159 c-243 -30 -424 -242 -424 -495 0 -376 397 -611 732 -432
155 82 258 256 258 433 0 140 -46 250 -145 351 -113 114 -258 164 -421 143z
m157 -19 c249 -47 422 -287 388 -536 -23 -167 -119 -296 -277 -372 -63 -30
-86 -36 -167 -40 -155 -8 -259 31 -366 138 -114 113 -164 260 -139 408 46 272
296 452 561 402z"/>
<path d="M19120 3670 l0 -190 40 0 40 0 0 80 0 81 83 -3 82 -3 3 -77 3 -78 34
0 35 0 0 190 0 190 -35 0 -35 0 0 -80 0 -80 -85 0 -85 0 0 80 0 80 -40 0 -40
0 0 -190z"/>
<path d="M19517 3853 c-4 -3 -7 -89 -7 -190 l0 -183 40 0 39 0 3 120 3 119 83
-119 c79 -114 84 -120 118 -120 l34 0 -2 188 -3 187 -37 3 -37 3 -3 -123 -3
-123 -84 123 c-72 104 -88 122 -111 122 -15 0 -30 -3 -33 -7z"/>
<path d="M6300 2951 l0 -1201 373 0 c402 0 448 5 548 55 170 87 259 329 259
706 0 317 -63 478 -213 549 l-58 28 35 12 c87 28 162 119 192 234 20 74 19
374 -2 472 -36 175 -113 267 -273 322 -38 13 -113 16 -453 19 l-408 4 0 -1200z
m647 806 l28 -27 3 -168 c4 -200 -1 -242 -34 -282 -24 -28 -30 -30 -100 -30
l-74 0 0 271 0 271 75 -4 c66 -3 78 -7 102 -31z m-3 -908 c57 -45 61 -64 64
-317 3 -221 3 -235 -18 -277 -27 -56 -82 -85 -163 -85 l-57 0 0 350 0 350 74
0 c59 0 78 -4 100 -21z"/>
<path d="M10300 3920 l0 -230 145 0 145 0 0 -970 0 -970 235 0 235 0 0 970 0
970 145 0 145 0 0 230 0 230 -525 0 -525 0 0 -230z"/>
<path d="M9485 3811 c-326 -53 -504 -255 -480 -546 21 -252 67 -320 390 -570
267 -207 302 -250 312 -387 10 -138 -30 -205 -116 -195 -88 10 -110 68 -111
290 l0 97 -239 0 -239 0 -4 -77 c-27 -464 172 -693 599 -693 145 0 235 18 333
67 139 68 230 187 266 349 23 104 16 312 -14 404 -55 167 -157 280 -442 488
-114 83 -205 157 -220 178 -17 26 -25 54 -28 98 -4 56 -1 65 23 94 23 28 33
32 74 32 35 0 53 -5 65 -19 29 -31 45 -91 46 -163 l0 -68 250 0 250 0 0 76 c0
149 -51 300 -133 390 -54 60 -155 117 -248 139 -76 18 -264 27 -334 16z"/>
<path d="M12217 3809 c-94 -22 -181 -94 -223 -182 l-24 -52 0 113 0 112 -245
0 -245 0 0 -1025 0 -1025 245 0 245 0 0 796 0 795 43 19 c47 20 161 46 250 55
l57 6 0 200 0 199 -32 -1 c-18 -1 -50 -5 -71 -10z"/>
<path d="M12888 3810 c-141 -17 -270 -72 -334 -143 -73 -80 -114 -214 -114
-374 l0 -93 234 0 234 0 4 94 c3 89 5 97 32 125 54 57 128 33 161 -52 12 -32
15 -71 13 -170 l-3 -128 -165 -55 c-313 -105 -412 -168 -478 -304 -46 -96 -63
-199 -63 -375 0 -332 65 -501 221 -574 49 -23 68 -26 165 -26 87 0 118 4 147
19 57 28 114 91 151 165 l32 66 3 -117 3 -118 239 0 240 0 0 798 c0 488 -4
822 -10 862 -45 289 -323 445 -712 400z m230 -1292 c-3 -349 -6 -364 -60 -402
-52 -36 -128 1 -148 72 -5 20 -10 125 -10 233 0 214 8 259 58 317 25 30 135
102 155 102 4 0 7 -143 5 -322z"/>
<path d="M14272 3810 c-141 -20 -222 -54 -304 -129 -85 -78 -135 -186 -164
-356 -21 -121 -31 -760 -15 -975 19 -273 79 -417 213 -516 94 -69 190 -96 369
-102 125 -4 157 -1 228 17 203 51 341 185 386 373 11 46 15 123 15 281 l0 217
-245 0 -245 0 0 -203 c0 -190 -1 -205 -22 -247 -32 -62 -80 -81 -135 -54 -20
11 -47 35 -58 54 -19 34 -20 54 -23 574 -3 595 -1 629 49 671 42 35 116 36
148 1 33 -35 40 -83 41 -263 l0 -163 245 0 245 0 0 193 c0 213 -12 285 -58
371 -59 110 -189 203 -337 241 -74 19 -248 27 -333 15z"/>
<path d="M17015 3810 c-193 -31 -347 -133 -416 -276 -57 -122 -61 -165 -56
-771 3 -526 4 -551 25 -632 74 -281 241 -401 559 -401 438 0 612 196 613 693
l0 117 -240 0 -240 0 0 -157 c0 -172 -9 -223 -45 -259 -33 -33 -104 -33 -138
-1 -44 40 -50 76 -55 350 l-4 257 362 0 362 0 -4 338 c-5 364 -7 382 -65 496
-33 65 -111 146 -172 180 -107 58 -337 89 -486 66z m169 -360 c14 -5 35 -28
48 -52 20 -39 23 -60 26 -235 l4 -193 -121 0 -121 0 0 154 c0 222 17 291 81
323 29 15 50 16 83 3z"/>
<path d="M18657 3809 c-92 -22 -169 -85 -217 -177 l-29 -57 -1 113 0 112 -242
-2 -243 -3 -3 -1022 -2 -1023 245 0 245 0 0 788 c0 895 -9 809 87 838 43 13
218 44 251 44 9 0 12 47 12 200 l0 200 -32 -1 c-18 -1 -50 -5 -71 -10z"/>
<path d="M7634 3786 c-3 -8 -4 -389 -1 -847 3 -724 6 -843 20 -902 36 -149 94
-235 192 -279 68 -30 240 -38 313 -14 63 21 116 74 159 158 l32 63 1 -107 0
-108 245 0 245 0 0 1025 0 1025 -242 -2 -243 -3 -5 -800 c-4 -566 -8 -807 -16
-825 -20 -44 -51 -63 -99 -63 -54 0 -90 28 -105 82 -6 23 -10 333 -10 824 l0
787 -240 0 c-197 0 -242 -3 -246 -14z"/>
<path d="M10370 760 l0 -380 40 0 40 0 0 380 0 380 -40 0 -40 0 0 -380z"/>
<path d="M7646 1114 c-25 -25 -20 -71 10 -90 55 -37 117 25 80 80 -19 30 -65
35 -90 10z"/>
<path d="M6310 862 c0 -302 5 -328 80 -402 56 -57 118 -80 215 -80 132 0 235
74 270 194 12 38 15 109 15 298 l0 248 -45 0 -45 0 0 -238 c0 -270 -8 -317
-62 -369 -42 -41 -76 -53 -144 -53 -92 0 -154 44 -182 129 -8 22 -12 121 -12
282 l0 249 -45 0 -45 0 0 -258z"/>
<path d="M7235 897 c-16 -8 -45 -26 -62 -41 -34 -29 -38 -27 -45 19 -2 14 -12
21 -36 23 l-32 3 0 -260 0 -261 40 0 40 0 0 193 0 193 28 26 c40 38 65 48 117
48 105 0 115 -25 115 -270 l0 -190 45 0 45 0 0 173 c-1 237 -11 277 -83 331
-34 25 -129 32 -172 13z"/>
<path d="M8539 896 c-58 -21 -93 -51 -124 -108 -26 -47 -30 -63 -29 -138 0
-128 44 -208 139 -251 78 -36 241 -14 289 40 15 17 15 19 -4 36 -20 18 -22 18
-68 -6 -65 -33 -154 -33 -201 0 -37 26 -67 86 -73 141 l-3 35 185 5 185 5 -2
45 c-8 157 -146 249 -294 196z m159 -66 c33 -20 62 -71 62 -110 0 -19 -6 -20
-145 -20 -164 0 -164 0 -122 75 40 71 136 97 205 55z"/>
<path d="M9135 891 c-17 -10 -45 -36 -63 -57 l-31 -39 -1 37 c0 56 -8 68 -46
68 l-34 0 0 -260 0 -260 45 0 45 0 0 173 c0 154 2 175 20 205 32 52 76 74 136
68 42 -5 53 -3 58 10 11 29 6 62 -10 68 -31 12 -89 6 -119 -13z"/>
<path d="M9441 888 c-62 -32 -86 -68 -86 -130 0 -44 4 -53 36 -82 23 -21 65
-43 116 -60 44 -15 89 -36 98 -46 22 -25 22 -76 -1 -101 -37 -41 -130 -44
-189 -5 -31 21 -45 20 -61 -1 -21 -28 -18 -32 39 -58 108 -51 246 -24 288 55
23 42 25 118 3 148 -18 27 -68 53 -147 78 -100 31 -130 76 -84 129 32 38 98
44 163 16 46 -21 49 -21 61 -4 18 24 13 34 -32 57 -60 31 -149 33 -204 4z"/>
<path d="M9949 901 c-36 -12 -71 -31 -96 -53 -18 -17 -20 -24 -10 -39 15 -25
26 -24 78 6 52 29 132 34 166 10 24 -17 43 -71 43 -122 0 -32 -2 -33 -39 -33
-102 0 -236 -48 -267 -95 -22 -34 -21 -105 2 -139 47 -73 182 -76 271 -6 34
26 43 25 43 -5 0 -25 25 -45 55 -45 15 0 16 21 13 208 -3 198 -4 209 -27 246
-40 63 -143 93 -232 67z m179 -343 l-3 -62 -48 -30 c-83 -51 -179 -37 -189 28
-6 32 10 70 35 86 29 18 112 38 165 39 l43 1 -3 -62z"/>
<path d="M7650 640 l0 -260 40 0 40 0 0 260 0 260 -40 0 -40 0 0 -260z"/>
<path d="M7840 897 c0 -2 46 -118 103 -258 l103 -254 40 -3 39 -2 97 242 c54
134 100 251 104 261 5 14 0 17 -34 17 l-40 0 -75 -192 c-42 -106 -79 -202 -82
-213 -4 -14 -21 20 -59 120 -29 77 -66 172 -82 210 -29 70 -30 70 -72 73 -23
2 -42 1 -42 -1z"/>
</g>
</svg>
